<?xml version="1.0" standalone="no"?>
<!DOCTYPE svg PUBLIC "-//W3C//DTD SVG 20010904//EN"
 "http://www.w3.org/TR/2001/REC-SVG-20010904/DTD/svg10.dtd">
<svg version="1.0" xmlns="http://www.w3.org/2000/svg"
 width="390.000000pt" height="390.000000pt" viewBox="0 0 390.000000 390.000000"
 preserveAspectRatio="xMidYMid meet">
<metadata>
Created by potrace 1.11, written by Peter Selinger 2001-2013
</metadata>
<g transform="translate(0.000000,390.000000) scale(0.100000,-0.100000)"
fill="#000000" stroke="none">
<path d="M820 3580 c-114 -9 -165 -22 -244 -62 -122 -62 -203 -175 -232 -325
-21 -111 -21 -2375 0 -2486 30 -154 111 -265 236 -324 126 -60 79 -58 1365
-56 1291 1 1262 0 1385 60 109 53 196 170 231 313 12 45 14 273 14 1250 0 977
-2 1205 -14 1250 -34 139 -122 260 -227 313 -113 57 -129 59 -554 67 -491 10
-1832 10 -1960 0z m820 -1180 l0 -300 315 0 315 0 0 300 0 300 165 0 165 0 0
-750 0 -750 -165 0 -165 0 -2 308 -3 307 -312 3 -313 2 0 -310 0 -310 -170 0
-170 0 0 750 0 750 170 0 170 0 0 -300z"/>
</g>
</svg>
